{
    "asset" : {
        "generator" : "Khronos glTF Blender I/O v3.2.40",
        "version" : "2.0"
    },
    "extensionsUsed" : [
        "KHR_texture_transform"
    ],
    "extensionsRequired" : [
        "KHR_texture_transform"
    ],
    "scene" : 0,
    "scenes" : [
        {
            "name" : "Scene",
            "nodes" : [
                0,
                1,
                2,
                3
            ]
        }
    ],
    "nodes" : [
        {
            "mesh" : 0,
            "name" : "LEDStand",
            "rotation" : [
                0,
                0.7071068286895752,
                0,
                0.7071068286895752
            ],
            "scale" : [
                0.09473283588886261,
                0.09473283588886261,
                0.09473283588886261
            ],
            "translation" : [
                0.0010907587129622698,
                -0.0013841502368450165,
                0.0001416482264176011
            ]
        },
        {
            "mesh" : 1,
            "name" : "Blue",
            "rotation" : [
                0,
                0.7071068286895752,
                0,
                0.7071068286895752
            ],
            "scale" : [
                0.012138844467699528,
                0.012138844467699528,
                0.012138844467699528
            ],
            "translation" : [
                0.0010907587129622698,
                -0.0013841502368450165,
                0.0001416482264176011
            ]
        },
        {
            "mesh" : 2,
            "name" : "Red",
            "rotation" : [
                0,
                0.7071068286895752,
                0,
                0.7071068286895752
            ],
            "scale" : [
                0.012138844467699528,
                0.012138844467699528,
                0.012138844467699528
            ],
            "translation" : [
                0.0010907601099461317,
                -0.0013841502368450165,
                0.03999009728431702
            ]
        },
        {
            "mesh" : 3,
            "name" : "Green",
            "rotation" : [
                0,
                0.7071068286895752,
                0,
                0.7071068286895752
            ],
            "scale" : [
                0.012138844467699528,
                0.012138844467699528,
                0.012138844467699528
            ],
            "translation" : [
                0.001090757199563086,
                -0.0013841502368450165,
                -0.04027336835861206
            ]
        }
    ],
    "materials" : [
        {
            "doubleSided" : true,
            "name" : "Belt",
            "pbrMetallicRoughness" : {
                "baseColorFactor" : [
                    0.024013331159949303,
                    0.024013331159949303,
                    0.024013331159949303,
                    1
                ],
                "metallicFactor" : 0,
                "roughnessFactor" : 0.35427460074424744
            }
        },
        {
            "doubleSided" : true,
            "name" : "Leather",
            "normalTexture" : {
                "extensions" : {
                    "KHR_texture_transform" : {
                        "offset" : [
                            0,
                            -2
                        ],
                        "scale" : [
                            3,
                            3
                        ]
                    }
                },
                "index" : 0,
                "scale" : 2
            },
            "pbrMetallicRoughness" : {
                "baseColorTexture" : {
                    "extensions" : {
                        "KHR_texture_transform" : {
                            "offset" : [
                                0,
                                -2
                            ],
                            "scale" : [
                                3,
                                3
                            ]
                        }
                    },
                    "index" : 1
                },
                "metallicFactor" : 0,
                "roughnessFactor" : 0.769500732421875
            }
        },
        {
            "doubleSided" : true,
            "name" : "BlueLEDMat",
            "pbrMetallicRoughness" : {
                "baseColorFactor" : [
                    0.04044796898961067,
                    0.06681743264198303,
                    0.8000000715255737,
                    1
                ],
                "metallicFactor" : 0,
                "roughnessFactor" : 0.5
            }
        },
        {
            "doubleSided" : true,
            "name" : "RedLEDMat",
            "pbrMetallicRoughness" : {
                "baseColorFactor" : [
                    0.8000000715255737,
                    0.030947890132665634,
                    0.03831929340958595,
                    1
                ],
                "metallicFactor" : 0,
                "roughnessFactor" : 0.5
            }
        },
        {
            "doubleSided" : true,
            "name" : "GreenLEDMat",
            "pbrMetallicRoughness" : {
                "baseColorFactor" : [
                    0.005079845432192087,
                    0.15232087671756744,
                    0.005713373888283968,
                    1
                ],
                "metallicFactor" : 0,
                "roughnessFactor" : 0.5
            }
        }
    ],
    "meshes" : [
        {
            "name" : "Cube.013",
            "primitives" : [
                {
                    "attributes" : {
                        "POSITION" : 0,
                        "NORMAL" : 1,
                        "TEXCOORD_0" : 2
                    },
                    "indices" : 3,
                    "material" : 0
                },
                {
                    "attributes" : {
                        "POSITION" : 4,
                        "NORMAL" : 5,
                        "TEXCOORD_0" : 6
                    },
                    "indices" : 7,
                    "material" : 1
                }
            ]
        },
        {
            "name" : "Sphere.003",
            "primitives" : [
                {
                    "attributes" : {
                        "POSITION" : 8,
                        "NORMAL" : 9,
                        "TEXCOORD_0" : 10
                    },
                    "indices" : 11,
                    "material" : 2
                }
            ]
        },
        {
            "name" : "Sphere.004",
            "primitives" : [
                {
                    "attributes" : {
                        "POSITION" : 12,
                        "NORMAL" : 13,
                        "TEXCOORD_0" : 14
                    },
                    "indices" : 11,
                    "material" : 3
                }
            ]
        },
        {
            "name" : "Sphere.005",
            "primitives" : [
                {
                    "attributes" : {
                        "POSITION" : 15,
                        "NORMAL" : 16,
                        "TEXCOORD_0" : 17
                    },
                    "indices" : 11,
                    "material" : 4
                }
            ]
        }
    ],
    "textures" : [
        {
            "sampler" : 0,
            "source" : 0
        },
        {
            "sampler" : 0,
            "source" : 1
        }
    ],
    "images" : [
        {
            "mimeType" : "image/jpeg",
            "name" : "FabricLeatherBuffaloSemiAniline001_NRM_1K",
            "uri" : "FabricLeatherBuffaloSemiAniline001_NRM_1K.jpg"
        },
        {
            "mimeType" : "image/jpeg",
            "name" : "FabricLeatherBuffaloSemiAniline001_COL_1K",
            "uri" : "FabricLeatherBuffaloSemiAniline001_COL_1K.jpg"
        }
    ],
    "accessors" : [
        {
            "bufferView" : 0,
            "componentType" : 5126,
            "count" : 28,
            "max" : [
                0.7659655213356018,
                0.06889881193637848,
                0.2964749336242676
            ],
            "min" : [
                -0.7659655213356018,
                0.06889881193637848,
                -0.2964749336242676
            ],
            "type" : "VEC3"
        },
        {
            "bufferView" : 1,
            "componentType" : 5126,
            "count" : 28,
            "type" : "VEC3"
        },
        {
            "bufferView" : 2,
            "componentType" : 5126,
            "count" : 28,
            "type" : "VEC2"
        },
        {
            "bufferView" : 3,
            "componentType" : 5123,
            "count" : 78,
            "type" : "SCALAR"
        },
        {
            "bufferView" : 4,
            "componentType" : 5126,
            "count" : 335,
            "max" : [
                0.8045775890350342,
                0.0853804275393486,
                0.34940293431282043
            ],
            "min" : [
                -0.8045775890350342,
                -0.007140152156352997,
                -0.34940293431282043
            ],
            "type" : "VEC3"
        },
        {
            "bufferView" : 5,
            "componentType" : 5126,
            "count" : 335,
            "type" : "VEC3"
        },
        {
            "bufferView" : 6,
            "componentType" : 5126,
            "count" : 335,
            "type" : "VEC2"
        },
        {
            "bufferView" : 7,
            "componentType" : 5123,
            "count" : 1590,
            "type" : "SCALAR"
        },
        {
            "bufferView" : 8,
            "componentType" : 5126,
            "count" : 329,
            "max" : [
                0.9999997019767761,
                2.3681271076202393,
                0.9999994039535522
            ],
            "min" : [
                -0.9999990463256836,
                -4.371138828673793e-08,
                -0.9999987483024597
            ],
            "type" : "VEC3"
        },
        {
            "bufferView" : 9,
            "componentType" : 5126,
            "count" : 329,
            "type" : "VEC3"
        },
        {
            "bufferView" : 10,
            "componentType" : 5126,
            "count" : 329,
            "type" : "VEC2"
        },
        {
            "bufferView" : 11,
            "componentType" : 5123,
            "count" : 1632,
            "type" : "SCALAR"
        },
        {
            "bufferView" : 12,
            "componentType" : 5126,
            "count" : 329,
            "max" : [
                0.9999997019767761,
                2.3681271076202393,
                0.9999994039535522
            ],
            "min" : [
                -0.9999990463256836,
                -4.371138828673793e-08,
                -0.9999987483024597
            ],
            "type" : "VEC3"
        },
        {
            "bufferView" : 13,
            "componentType" : 5126,
            "count" : 329,
            "type" : "VEC3"
        },
        {
            "bufferView" : 14,
            "componentType" : 5126,
            "count" : 329,
            "type" : "VEC2"
        },
        {
            "bufferView" : 15,
            "componentType" : 5126,
            "count" : 329,
            "max" : [
                0.9999997019767761,
                2.3681271076202393,
                0.9999994039535522
            ],
            "min" : [
                -0.9999990463256836,
                -4.371138828673793e-08,
                -0.9999987483024597
            ],
            "type" : "VEC3"
        },
        {
            "bufferView" : 16,
            "componentType" : 5126,
            "count" : 329,
            "type" : "VEC3"
        },
        {
            "bufferView" : 17,
            "componentType" : 5126,
            "count" : 329,
            "type" : "VEC2"
        }
    ],
    "bufferViews" : [
        {
            "buffer" : 0,
            "byteLength" : 336,
            "byteOffset" : 0
        },
        {
            "buffer" : 0,
            "byteLength" : 336,
            "byteOffset" : 336
        },
        {
            "buffer" : 0,
            "byteLength" : 224,
            "byteOffset" : 672
        },
        {
            "buffer" : 0,
            "byteLength" : 156,
            "byteOffset" : 896
        },
        {
            "buffer" : 0,
            "byteLength" : 4020,
            "byteOffset" : 1052
        },
        {
            "buffer" : 0,
            "byteLength" : 4020,
            "byteOffset" : 5072
        },
        {
            "buffer" : 0,
            "byteLength" : 2680,
            "byteOffset" : 9092
        },
        {
            "buffer" : 0,
            "byteLength" : 3180,
            "byteOffset" : 11772
        },
        {
            "buffer" : 0,
            "byteLength" : 3948,
            "byteOffset" : 14952
        },
        {
            "buffer" : 0,
            "byteLength" : 3948,
            "byteOffset" : 18900
        },
        {
            "buffer" : 0,
            "byteLength" : 2632,
            "byteOffset" : 22848
        },
        {
            "buffer" : 0,
            "byteLength" : 3264,
            "byteOffset" : 25480
        },
        {
            "buffer" : 0,
            "byteLength" : 3948,
            "byteOffset" : 28744
        },
        {
            "buffer" : 0,
            "byteLength" : 3948,
            "byteOffset" : 32692
        },
        {
            "buffer" : 0,
            "byteLength" : 2632,
            "byteOffset" : 36640
        },
        {
            "buffer" : 0,
            "byteLength" : 3948,
            "byteOffset" : 39272
        },
        {
            "buffer" : 0,
            "byteLength" : 3948,
            "byteOffset" : 43220
        },
        {
            "buffer" : 0,
            "byteLength" : 2632,
            "byteOffset" : 47168
        }
    ],
    "samplers" : [
        {
            "magFilter" : 9729,
            "minFilter" : 9987
        }
    ],
    "buffers" : [
        {
            "byteLength" : 49800,
            "uri" : "LED.bin"
        }
    ]
}
