{
    "asset" : {
        "generator" : "Khronos glTF Blender I/O v3.2.40",
        "version" : "2.0"
    },
    "scene" : 0,
    "scenes" : [
        {
            "name" : "Scene",
            "nodes" : [
                0,
                1
            ]
        }
    ],
    "nodes" : [
        {
            "mesh" : 0,
            "name" : "RoundButtonBot",
            "scale" : [
                0.03857159614562988,
                0.03857159614562988,
                0.03857159614562988
            ],
            "translation" : [
                0,
                0.03695729002356529,
                0
            ]
        },
        {
            "mesh" : 1,
            "name" : "RoundButtonTop",
            "scale" : [
                0.03857159614562988,
                0.03857159614562988,
                0.03857159614562988
            ],
            "translation" : [
                0,
                0.03695729002356529,
                0
            ]
        }
    ],
    "materials" : [
        {
            "doubleSided" : true,
            "name" : "ButtonBase",
            "pbrMetallicRoughness" : {
                "baseColorFactor" : [
                    0.05780141055583954,
                    0.05780141055583954,
                    0.05780141055583954,
                    1
                ],
                "metallicFactor" : 0,
                "roughnessFactor" : 0.5
            }
        },
        {
            "doubleSided" : true,
            "name" : "Button",
            "pbrMetallicRoughness" : {
                "baseColorFactor" : [
                    0.44285595417022705,
                    0.01613524928689003,
                    0.01613524928689003,
                    1
                ],
                "metallicFactor" : 0,
                "roughnessFactor" : 0.3449999988079071
            }
        }
    ],
    "meshes" : [
        {
            "name" : "Cylinder.005",
            "primitives" : [
                {
                    "attributes" : {
                        "POSITION" : 0,
                        "NORMAL" : 1,
                        "TEXCOORD_0" : 2
                    },
                    "indices" : 3,
                    "material" : 0
                }
            ]
        },
        {
            "name" : "Cylinder.007",
            "primitives" : [
                {
                    "attributes" : {
                        "POSITION" : 4,
                        "NORMAL" : 5,
                        "TEXCOORD_0" : 6
                    },
                    "indices" : 7,
                    "material" : 1
                }
            ]
        }
    ],
    "accessors" : [
        {
            "bufferView" : 0,
            "componentType" : 5126,
            "count" : 740,
            "max" : [
                1,
                -0.35653185844421387,
                1
            ],
            "min" : [
                -1,
                -1,
                -1
            ],
            "type" : "VEC3"
        },
        {
            "bufferView" : 1,
            "componentType" : 5126,
            "count" : 740,
            "type" : "VEC3"
        },
        {
            "bufferView" : 2,
            "componentType" : 5126,
            "count" : 740,
            "type" : "VEC2"
        },
        {
            "bufferView" : 3,
            "componentType" : 5123,
            "count" : 2586,
            "type" : "SCALAR"
        },
        {
            "bufferView" : 4,
            "componentType" : 5126,
            "count" : 203,
            "max" : [
                0.7844111919403076,
                -0.10970413684844971,
                0.7844111919403076
            ],
            "min" : [
                -0.7844111919403076,
                -0.5215619206428528,
                -0.7844111919403076
            ],
            "type" : "VEC3"
        },
        {
            "bufferView" : 5,
            "componentType" : 5126,
            "count" : 203,
            "type" : "VEC3"
        },
        {
            "bufferView" : 6,
            "componentType" : 5126,
            "count" : 203,
            "type" : "VEC2"
        },
        {
            "bufferView" : 7,
            "componentType" : 5123,
            "count" : 1050,
            "type" : "SCALAR"
        }
    ],
    "bufferViews" : [
        {
            "buffer" : 0,
            "byteLength" : 8880,
            "byteOffset" : 0
        },
        {
            "buffer" : 0,
            "byteLength" : 8880,
            "byteOffset" : 8880
        },
        {
            "buffer" : 0,
            "byteLength" : 5920,
            "byteOffset" : 17760
        },
        {
            "buffer" : 0,
            "byteLength" : 5172,
            "byteOffset" : 23680
        },
        {
            "buffer" : 0,
            "byteLength" : 2436,
            "byteOffset" : 28852
        },
        {
            "buffer" : 0,
            "byteLength" : 2436,
            "byteOffset" : 31288
        },
        {
            "buffer" : 0,
            "byteLength" : 1624,
            "byteOffset" : 33724
        },
        {
            "buffer" : 0,
            "byteLength" : 2100,
            "byteOffset" : 35348
        }
    ],
    "buffers" : [
        {
            "byteLength" : 37448,
            "uri" : "RoundButton.bin"
        }
    ]
}
